<svg width="1440" height="1024" viewBox="0 0 1440 1024" fill="none" xmlns="http://www.w3.org/2000/svg">
<g id="Desktop - 2">
<rect width="1440" height="1024" fill="white"/>
<g id="Raining 1" clip-path="url(#clip0)">
<path id="Vector" d="M796.619 890.913H781.859C780.003 890.911 778.224 890.173 776.912 888.86C775.6 887.548 774.861 885.769 774.859 883.913V760.899C774.861 759.043 775.6 757.264 776.912 755.951C778.224 754.639 780.003 753.901 781.859 753.899H796.619C798.475 753.901 800.254 754.639 801.567 755.951C802.879 757.264 803.617 759.043 803.619 760.899V883.913C803.617 885.769 802.879 887.548 801.567 888.86C800.254 890.173 798.475 890.911 796.619 890.913V890.913Z" fill="#6C63FF"/>
<path id="Vector_2" d="M765.427 890.913H750.667C748.811 890.911 747.032 890.173 745.72 888.86C744.407 887.548 743.669 885.769 743.667 883.913V760.899C743.669 759.043 744.407 757.264 745.72 755.951C747.032 754.639 748.811 753.901 750.667 753.899H765.427C767.283 753.901 769.062 754.639 770.374 755.951C771.687 757.264 772.425 759.043 772.427 760.899V883.913C772.425 885.769 771.687 887.548 770.374 888.86C769.062 890.173 767.283 890.911 765.427 890.913V890.913Z" fill="#6C63FF"/>
<path id="Vector_3" d="M806.527 321.222C806.527 321.222 813.375 306.733 802.309 302.966C791.242 299.199 792.038 314.374 792.038 314.374L805.5 322.363" fill="#3F3D56"/>
<path id="Vector_4" d="M573.99 363.853L551.054 382.447C551.054 382.447 895.148 498.088 934.394 521.028L930.52 488.624L898.01 449.027L835.035 408.854L733.381 377.231L622.6 337.391L573.99 363.853Z" fill="#6C63FF"/>
<path id="Vector_5" d="M749.235 410.093L671.386 604.386C671.386 604.386 658.944 636.559 686.44 642.725C702.972 646.432 711.711 636.404 716.051 627.817C720.688 618.644 708.102 610.579 701.812 618.706C701.71 618.838 701.607 618.973 701.505 619.11C701.351 619.315 684.857 632.114 684.867 614.598C684.907 610.56 685.745 606.569 687.331 602.855L763.837 419.11L749.235 410.093Z" fill="#3F3D56"/>
<path id="Vector_6" d="M798.625 312.976C798.625 312.976 776.719 309.777 764.398 302.815C764.398 302.815 629.199 274.039 551.138 381.39C551.138 381.39 918.628 466.457 934.478 519.971C934.478 519.971 957.543 420.94 835.362 329.527C835.361 329.526 805.47 319.138 798.625 312.976Z" fill="#3F3D56"/>
<path id="Vector_7" d="M598.782 600.717C596.959 608.352 594.656 610.169 592.474 609.648C590.293 609.127 589.059 606.465 590.883 598.831C592.706 591.196 599.077 582 599.077 582C599.077 582 600.605 593.082 598.782 600.717Z" fill="#CCCCCC"/>
<path id="Vector_8" d="M671.703 543.843C668.715 556.355 664.94 559.333 661.365 558.479C657.79 557.626 655.769 553.263 658.757 540.751C661.745 528.239 672.186 513.169 672.186 513.169C672.186 513.169 674.691 531.331 671.703 543.843Z" fill="#CCCCCC"/>
<path id="Vector_9" d="M684.782 454.717C682.959 462.352 680.656 464.169 678.474 463.648C676.293 463.127 675.059 460.465 676.883 452.831C678.706 445.196 685.077 436 685.077 436C685.077 436 686.605 447.082 684.782 454.717Z" fill="#CCCCCC"/>
<path id="Vector_10" d="M897.782 437.717C895.959 445.352 893.656 447.169 891.474 446.648C889.293 446.127 888.059 443.465 889.883 435.831C891.706 428.196 898.077 419 898.077 419C898.077 419 899.605 430.082 897.782 437.717Z" fill="#CCCCCC"/>
<g id="Group 1">
<path id="Vector_11" d="M376.703 492.843C373.715 505.355 369.94 508.333 366.365 507.479C362.79 506.626 360.769 502.263 363.757 489.751C366.745 477.239 377.186 462.169 377.186 462.169C377.186 462.169 379.691 480.331 376.703 492.843Z" fill="#CCCCCC"/>
<path id="Vector_12" d="M368.703 710.843C365.715 723.355 361.94 726.333 358.365 725.479C354.79 724.626 352.769 720.263 355.757 707.751C358.745 695.239 369.186 680.169 369.186 680.169C369.186 680.169 371.691 698.331 368.703 710.843Z" fill="#CCCCCC"/>
<path id="Vector_13" d="M381.782 621.717C379.959 629.352 377.656 631.169 375.474 630.648C373.293 630.127 372.059 627.465 373.883 619.831C375.706 612.196 382.077 603 382.077 603C382.077 603 383.605 614.082 381.782 621.717Z" fill="#CCCCCC"/>
<path id="Vector_14" d="M324.782 658.717C322.959 666.352 320.656 668.169 318.474 667.648C316.293 667.127 315.059 664.465 316.883 656.831C318.706 649.196 325.077 640 325.077 640C325.077 640 326.605 651.082 324.782 658.717Z" fill="#CCCCCC"/>
<path id="Vector_15" d="M743.703 297.843C740.715 310.355 736.94 313.333 733.365 312.479C729.79 311.626 727.769 307.263 730.757 294.751C733.745 282.239 744.186 267.169 744.186 267.169C744.186 267.169 746.691 285.331 743.703 297.843Z" fill="#CCCCCC"/>
<path id="Vector_16" d="M756.782 208.717C754.959 216.352 752.656 218.169 750.474 217.648C748.293 217.127 747.059 214.465 748.883 206.831C750.706 199.196 757.077 190 757.077 190C757.077 190 758.605 201.082 756.782 208.717Z" fill="#CCCCCC"/>
<path id="Vector_17" d="M699.782 245.717C697.959 253.352 695.656 255.169 693.474 254.648C691.293 254.127 690.059 251.465 691.883 243.831C693.706 236.196 700.077 227 700.077 227C700.077 227 701.605 238.082 699.782 245.717Z" fill="#CCCCCC"/>
<path id="Vector_18" d="M585.703 689.843C582.715 702.355 578.94 705.333 575.365 704.479C571.79 703.626 569.769 699.263 572.757 686.751C575.745 674.239 586.186 659.169 586.186 659.169C586.186 659.169 588.691 677.331 585.703 689.843Z" fill="#CCCCCC"/>
<path id="Vector_19" d="M541.782 637.717C539.959 645.352 537.656 647.169 535.474 646.648C533.293 646.127 532.059 643.465 533.883 635.831C535.706 628.196 542.077 619 542.077 619C542.077 619 543.605 630.082 541.782 637.717Z" fill="#CCCCCC"/>
<path id="Vector_20" d="M526.703 316.843C523.715 329.355 519.94 332.333 516.365 331.479C512.79 330.626 510.769 326.263 513.757 313.751C516.745 301.239 527.186 286.169 527.186 286.169C527.186 286.169 529.691 304.331 526.703 316.843Z" fill="#CCCCCC"/>
<path id="Vector_21" d="M518.703 534.843C515.715 547.355 511.94 550.333 508.365 549.479C504.79 548.626 502.769 544.263 505.757 531.751C508.745 519.239 519.186 504.169 519.186 504.169C519.186 504.169 521.691 522.331 518.703 534.843Z" fill="#CCCCCC"/>
<path id="Vector_22" d="M531.782 445.717C529.959 453.352 527.656 455.169 525.474 454.648C523.293 454.127 522.059 451.465 523.883 443.831C525.706 436.196 532.077 427 532.077 427C532.077 427 533.605 438.082 531.782 445.717Z" fill="#CCCCCC"/>
<path id="Vector_23" d="M474.782 482.717C472.959 490.352 470.656 492.169 468.474 491.648C466.293 491.127 465.059 488.465 466.883 480.831C468.706 473.196 475.077 464 475.077 464C475.077 464 476.605 475.082 474.782 482.717Z" fill="#CCCCCC"/>
<path id="Vector_24" d="M679.703 325.843C676.715 338.355 672.94 341.333 669.365 340.479C665.79 339.626 663.769 335.263 666.757 322.751C669.745 310.239 680.186 295.169 680.186 295.169C680.186 295.169 682.691 313.331 679.703 325.843Z" fill="#CCCCCC"/>
<path id="Vector_25" d="M821.703 367.843C818.715 380.355 814.94 383.333 811.365 382.479C807.79 381.626 805.769 377.263 808.757 364.751C811.745 352.239 822.186 337.169 822.186 337.169C822.186 337.169 824.691 355.331 821.703 367.843Z" fill="#CCCCCC"/>
<path id="Vector_26" d="M777.782 315.717C775.959 323.352 773.656 325.169 771.474 324.648C769.293 324.127 768.059 321.465 769.883 313.831C771.706 306.196 778.077 297 778.077 297C778.077 297 779.605 308.082 777.782 315.717Z" fill="#CCCCCC"/>
<path id="Vector_27" d="M892.703 308.843C889.715 321.355 885.94 324.333 882.365 323.479C878.79 322.626 876.769 318.263 879.757 305.751C882.745 293.239 893.186 278.169 893.186 278.169C893.186 278.169 895.691 296.331 892.703 308.843Z" fill="#CCCCCC"/>
<path id="Vector_28" d="M884.703 526.843C881.715 539.355 877.94 542.333 874.365 541.479C870.79 540.626 868.769 536.263 871.757 523.751C874.745 511.239 885.186 496.169 885.186 496.169C885.186 496.169 887.691 514.331 884.703 526.843Z" fill="#CCCCCC"/>
<path id="Vector_29" d="M1034.7 350.843C1031.71 363.355 1027.94 366.333 1024.37 365.479C1020.79 364.626 1018.77 360.263 1021.76 347.751C1024.74 335.239 1035.19 320.169 1035.19 320.169C1035.19 320.169 1037.69 338.331 1034.7 350.843Z" fill="#CCCCCC"/>
<path id="Vector_30" d="M990.782 298.717C988.959 306.352 986.656 308.169 984.474 307.648C982.293 307.127 981.059 304.465 982.883 296.831C984.706 289.196 991.077 280 991.077 280C991.077 280 992.605 291.082 990.782 298.717Z" fill="#CCCCCC"/>
<path id="Vector_31" d="M975.703 451.843C972.715 464.355 968.94 467.333 965.365 466.479C961.79 465.626 959.769 461.263 962.757 448.751C965.745 436.239 976.186 421.169 976.186 421.169C976.186 421.169 978.691 439.331 975.703 451.843Z" fill="#CCCCCC"/>
<path id="rd" d="M967.703 669.843C964.715 682.355 960.94 685.333 957.365 684.479C953.79 683.626 951.769 679.263 954.757 666.751C957.745 654.239 968.186 639.169 968.186 639.169C968.186 639.169 970.691 657.331 967.703 669.843Z" fill="#CCCCCC"/>
<path id="rd_2" d="M980.782 580.717C978.959 588.352 976.656 590.169 974.474 589.648C972.293 589.127 971.059 586.465 972.883 578.831C974.706 571.196 981.077 562 981.077 562C981.077 562 982.605 573.082 980.782 580.717Z" fill="#CCCCCC"/>
<path id="rd_3" d="M1117.7 493.843C1114.71 506.355 1110.94 509.333 1107.37 508.479C1103.79 507.626 1101.77 503.263 1104.76 490.751C1107.74 478.239 1118.19 463.169 1118.19 463.169C1118.19 463.169 1120.69 481.331 1117.7 493.843Z" fill="#CCCCCC"/>
<path id="rd_4" d="M1073.78 442.717C1071.96 450.352 1069.66 452.169 1067.47 451.648C1065.29 451.127 1064.06 448.465 1065.88 440.831C1067.71 433.196 1074.08 424 1074.08 424C1074.08 424 1075.61 435.082 1073.78 442.717Z" fill="#CCCCCC"/>
</g>
<path id="Vector_32" d="M783.901 619.152C812.068 619.152 834.901 596.318 834.901 568.152C834.901 539.985 812.068 517.152 783.901 517.152C755.734 517.152 732.901 539.985 732.901 568.152C732.901 596.318 755.734 619.152 783.901 619.152Z" fill="#6C63FF"/>
<path id="Vector_33" d="M742.863 589.561C739.557 589.469 735.442 589.353 732.273 587.038C731.33 586.321 730.554 585.405 730.001 584.356C729.448 583.307 729.132 582.149 729.073 580.965C729.016 580.124 729.154 579.28 729.477 578.501C729.8 577.722 730.298 577.028 730.934 576.473C732.589 575.073 735.007 574.745 737.612 575.511L734.913 555.785L736.894 555.514L740.067 578.704L738.413 577.945C736.495 577.066 733.862 576.618 732.225 578C731.823 578.362 731.51 578.811 731.31 579.313C731.11 579.815 731.029 580.356 731.072 580.895C731.12 581.776 731.358 582.637 731.769 583.418C732.18 584.2 732.754 584.884 733.453 585.423C735.919 587.225 739.199 587.457 742.919 587.562L742.863 589.561Z" fill="#2F2E41"/>
<path id="Vector_34" d="M759.114 557.487H748.342V559.487H759.114V557.487Z" fill="#2F2E41"/>
<path id="Vector_35" d="M787.469 517.001C787.844 510.972 789.511 505.094 792.355 499.766C795.2 494.437 799.156 489.782 803.956 486.115C808.915 482.443 814.639 479.935 820.701 478.779C826.763 477.623 833.008 477.848 838.971 479.437C844.895 480.977 850.393 483.841 855.05 487.815C859.707 491.788 863.401 496.767 865.853 502.376C868.322 507.943 869.553 513.979 869.463 520.068C869.191 526.69 867.546 533.183 864.633 539.135C861.625 545.688 857.833 551.835 854.539 558.24C851.294 564.556 848.495 571.09 846.161 577.797C841.413 591.461 838.612 605.725 837.84 620.17C836.616 642.941 838.794 676.185 864.5 684.923C871.036 687.146 878.088 687.559 884.942 687.541C892.16 687.629 899.36 686.786 906.362 685.032C918.498 681.792 930.018 674.183 935.188 662.361C936.38 659.631 937.179 656.745 937.561 653.791C937.669 652.982 936.795 652.299 936.061 652.291C935.667 652.301 935.29 652.462 935.011 652.741C934.732 653.02 934.571 653.397 934.561 653.791C932.887 666.389 922.39 676.05 910.992 680.394C904.333 682.807 897.336 684.161 890.256 684.405C883.21 684.761 875.894 684.706 868.995 683.084C862.853 681.755 857.265 678.579 852.981 673.981C849.162 669.585 846.313 664.432 844.621 658.859C840.564 646.474 840.139 632.857 840.852 619.948C841.658 605.551 844.52 591.342 849.349 577.755C851.789 570.895 854.731 564.224 858.153 557.797C861.496 551.511 865.207 545.402 868.023 538.85C870.772 532.827 872.283 526.314 872.468 519.696C872.49 513.585 871.273 507.532 868.892 501.903C866.551 496.252 863.041 491.16 858.593 486.962C854.145 482.763 848.858 479.553 843.082 477.542C837.204 475.497 830.964 474.702 824.762 475.21C818.56 475.718 812.532 477.518 807.066 480.493C801.866 483.482 797.311 487.471 793.662 492.232C790.014 496.992 787.346 502.428 785.811 508.225C785.065 511.097 784.615 514.038 784.469 517.001C784.37 518.93 787.37 518.925 787.469 517.001L787.469 517.001Z" fill="#2F2E41"/>
<path id="Vector_36" d="M797.442 518.054C798.261 512.49 801.049 507.404 805.299 503.721C809.817 499.934 815.609 498.012 821.494 498.346C823.424 498.442 823.419 495.442 821.494 495.346C815.097 495.057 808.818 497.13 803.85 501.17C798.881 505.21 795.572 510.935 794.55 517.256C794.261 519.145 797.152 519.959 797.442 518.054V518.054Z" fill="#2F2E41"/>
<path id="Vector_37" d="M796.955 521.251L782.712 516.548C781.452 516.132 780.41 515.233 779.813 514.049C779.217 512.864 779.116 511.492 779.531 510.232V510.232C779.947 508.973 780.846 507.931 782.03 507.334C783.215 506.738 784.588 506.636 785.847 507.052L800.091 511.755C801.35 512.171 802.392 513.07 802.989 514.254C803.585 515.439 803.687 516.811 803.271 518.071V518.071C802.855 519.33 801.956 520.372 800.772 520.969C799.587 521.565 798.214 521.667 796.955 521.251V521.251Z" fill="#2F2E41"/>
<path id="Vector_38" d="M820.041 805.344H726.251C724.528 805.342 722.876 804.657 721.657 803.438C720.439 802.22 719.753 800.567 719.751 798.844V784.085C719.753 782.362 720.439 780.709 721.657 779.491C722.876 778.272 724.528 777.587 726.251 777.585H820.041C821.764 777.587 823.417 778.272 824.635 779.491C825.854 780.709 826.539 782.362 826.541 784.085V798.844C826.539 800.567 825.854 802.22 824.635 803.438C823.417 804.657 821.764 805.342 820.041 805.344Z" fill="#CCCCCC"/>
<path id="Vector_39" d="M840.022 783.005C839.975 783.005 839.928 783.004 839.881 783.003L708.73 780.242C707.765 780.222 706.817 779.987 705.954 779.554C705.091 779.122 704.336 778.503 703.742 777.742C703.148 776.981 702.731 776.098 702.522 775.156C702.312 774.214 702.315 773.237 702.53 772.296L734.462 632.496C734.784 631.058 735.588 629.773 736.741 628.854C737.893 627.935 739.325 627.437 740.799 627.443H762.175C777.23 627.495 791.813 632.701 803.498 642.195C815.182 651.689 823.264 664.897 826.397 679.623L846.381 775.174C846.578 776.119 846.563 777.097 846.335 778.036C846.107 778.975 845.673 779.852 845.064 780.602C844.455 781.352 843.687 781.957 842.814 782.372C841.942 782.788 840.988 783.004 840.022 783.005V783.005Z" fill="#2F2E41"/>
<path id="Vector_40" d="M755.762 703.913C754.052 703.916 752.411 703.243 751.195 702.041L663.669 615.602C663.062 615.002 662.578 614.288 662.247 613.502C661.915 612.715 661.742 611.871 661.736 611.017C661.731 610.164 661.894 609.318 662.216 608.527C662.537 607.736 663.012 607.017 663.612 606.409L673.983 595.907C675.194 594.681 676.843 593.986 678.567 593.975C680.291 593.965 681.948 594.639 683.175 595.85L770.701 682.289C771.925 683.502 772.619 685.15 772.63 686.874C772.641 688.597 771.968 690.254 770.758 691.482L760.387 701.984C759.783 702.596 759.062 703.082 758.268 703.413C757.474 703.745 756.622 703.914 755.762 703.913V703.913Z" fill="#6C63FF"/>
<path id="Vector_41" d="M751.715 706.531L713.228 668.978C712.028 667.806 711.325 666.218 711.264 664.542C711.204 662.866 711.791 661.231 712.904 659.977L729.104 641.718C729.744 640.997 730.535 640.426 731.422 640.047C732.309 639.669 733.269 639.491 734.232 639.528C735.196 639.564 736.139 639.814 736.995 640.259C737.85 640.703 738.597 641.332 739.18 642.1L780.361 684.07C781.515 685.357 782.112 687.05 782.021 688.777C781.93 690.503 781.159 692.124 779.876 693.283L760.939 707.02C759.65 708.177 757.955 708.775 756.226 708.683C754.497 708.592 752.874 707.818 751.715 706.531V706.531Z" fill="#2F2E41"/>
<path id="Vector_42" d="M1122.45 891.912H384.158C384.001 891.912 383.846 891.882 383.701 891.822C383.556 891.762 383.425 891.675 383.314 891.564C383.203 891.453 383.115 891.322 383.055 891.177C382.995 891.033 382.964 890.878 382.964 890.721C382.964 890.564 382.995 890.409 383.055 890.264C383.115 890.12 383.203 889.988 383.314 889.878C383.425 889.767 383.556 889.68 383.701 889.62C383.846 889.56 384.001 889.53 384.158 889.53H1122.45C1122.61 889.53 1122.76 889.56 1122.91 889.62C1123.05 889.68 1123.18 889.767 1123.3 889.878C1123.41 889.988 1123.49 890.12 1123.55 890.264C1123.61 890.409 1123.65 890.564 1123.65 890.721C1123.65 890.878 1123.61 891.033 1123.55 891.177C1123.49 891.322 1123.41 891.453 1123.3 891.564C1123.18 891.675 1123.05 891.762 1122.91 891.822C1122.76 891.882 1122.61 891.912 1122.45 891.912V891.912Z" fill="#3F3D56"/>
</g>
</g>
<defs>
<clipPath id="clip0">
<rect width="807.642" height="701.912" fill="white" transform="translate(316 190)"/>
</clipPath>
</defs>
</svg>
